{
    "asset": {
        "generator": "FBX2glTF v0.9.7",
        "version": "2.0"
    },
    "scene": 0,
    "buffers": [
        {
            "byteLength": 69808,
            "uri": "buffer.bin"
        }
    ],
    "bufferViews": [
        {
            "buffer": 0,
            "byteLength": 1536,
            "byteOffset": 0,
            "target": 34963
        },
        {
            "buffer": 0,
            "byteLength": 8688,
            "byteOffset": 1536,
            "target": 34962
        },
        {
            "buffer": 0,
            "byteLength": 8688,
            "byteOffset": 10224,
            "target": 34962
        },
        {
            "buffer": 0,
            "byteLength": 5792,
            "byteOffset": 18912,
            "target": 34962
        },
        {
            "buffer": 0,
            "byteLength": 5792,
            "byteOffset": 24704,
            "target": 34962
        },
        {
            "buffer": 0,
            "byteLength": 11584,
            "byteOffset": 30496,
            "target": 34962
        },
        {
            "buffer": 0,
            "byteLength": 8688,
            "byteOffset": 42080,
            "target": 34962
        },
        {
            "buffer": 0,
            "byteLength": 8688,
            "byteOffset": 50768,
            "target": 34962
        },
        {
            "buffer": 0,
            "byteLength": 8688,
            "byteOffset": 59456,
            "target": 34962
        },
        {
            "buffer": 0,
            "byteLength": 1664,
            "byteOffset": 68144
        }
    ],
    "scenes": [
        {
            "name": "Root Scene",
            "nodes": [
                0
            ]
        }
    ],
    "accessors": [
        {
            "componentType": 5123,
            "type": "SCALAR",
            "count": 768,
            "bufferView": 0,
            "byteOffset": 0
        },
        {
            "componentType": 5126,
            "type": "VEC3",
            "count": 724,
            "bufferView": 1,
            "byteOffset": 0,
            "min": [
                -0.0759899988770485,
                -1.76234298265854e-08,
                -0.392931967973709
            ],
            "max": [
                0.0759898126125336,
                0.344499617815018,
                0.246810510754585
            ]
        },
        {
            "componentType": 5126,
            "type": "VEC3",
            "count": 724,
            "bufferView": 2,
            "byteOffset": 0
        },
        {
            "componentType": 5126,
            "type": "VEC2",
            "count": 724,
            "bufferView": 3,
            "byteOffset": 0
        },
        {
            "componentType": 5123,
            "type": "VEC4",
            "count": 724,
            "bufferView": 4,
            "byteOffset": 0
        },
        {
            "componentType": 5126,
            "type": "VEC4",
            "count": 724,
            "bufferView": 5,
            "byteOffset": 0
        },
        {
            "componentType": 5126,
            "type": "VEC3",
            "count": 724,
            "bufferView": 6,
            "byteOffset": 0,
            "min": [
                -0.0139549588784575,
                -0.021334195509553,
                -0.00679941149428487
            ],
            "max": [
                0.0139575861394405,
                0.00537576666101813,
                0.00886619556695223
            ],
            "name": "BS_Body.Fat"
        },
        {
            "componentType": 5126,
            "type": "VEC3",
            "count": 724,
            "bufferView": 7,
            "byteOffset": 0,
            "min": [
                0.0,
                0.0,
                0.0
            ],
            "max": [
                0.0,
                0.0,
                0.184681430459023
            ],
            "name": "BS_Body.ShortTail"
        },
        {
            "componentType": 5126,
            "type": "VEC3",
            "count": 724,
            "bufferView": 8,
            "byteOffset": 0,
            "min": [
                -0.027433417737484,
                -0.0244416985660791,
                -0.0230852495878935
            ],
            "max": [
                0.027433417737484,
                0.0183577910065651,
                0.0084062572568655
            ],
            "name": "BS_Body.PuffUp"
        },
        {
            "componentType": 5126,
            "type": "MAT4",
            "count": 26,
            "bufferView": 9,
            "byteOffset": 0
        }
    ],
    "samplers": [
        {}
    ],
    "materials": [
        {
            "name": "Mat_Body",
            "alphaMode": "OPAQUE",
            "extras": {
                "fromFBX": {
                    "shadingModel": "Metallic/Roughness",
                    "isTruePBR": true
                }
            },
            "pbrMetallicRoughness": {
                "baseColorFactor": [
                    1.0,
                    1.0,
                    1.0,
                    1.0
                ],
                "metallicFactor": 0.0,
                "roughnessFactor": 0.0
            }
        }
    ],
    "meshes": [
        {
            "name": "Geo_Body",
            "primitives": [
                {
                    "material": 0,
                    "mode": 4,
                    "attributes": {
                        "JOINTS_0": 4,
                        "NORMAL": 2,
                        "POSITION": 1,
                        "TEXCOORD_0": 3,
                        "WEIGHTS_0": 5
                    },
                    "indices": 0,
                    "targets": [
                        {
                            "POSITION": 6
                        },
                        {
                            "POSITION": 7
                        },
                        {
                            "POSITION": 8
                        }
                    ]
                }
            ],
            "weights": [
                0.0,
                0.0,
                0.0
            ]
        }
    ],
    "skins": [
        {
            "joints": [
                2,
                3,
                4,
                5,
                6,
                7,
                8,
                9,
                10,
                11,
                12,
                13,
                14,
                15,
                16,
                17,
                18,
                19,
                20,
                21,
                22,
                23,
                24,
                25,
                26,
                27
            ],
            "inverseBindMatrices": 9,
            "skeleton": 2
        }
    ],
    "nodes": [
        {
            "name": "RootNode",
            "translation": [
                0.0,
                0.0,
                0.0
            ],
            "rotation": [
                0.0,
                0.0,
                0.0,
                1.0
            ],
            "scale": [
                1.0,
                1.0,
                1.0
            ],
            "children": [
                1
            ]
        },
        {
            "name": "Export",
            "translation": [
                0.0,
                0.0,
                0.0
            ],
            "rotation": [
                0.0,
                0.0,
                0.0,
                1.0
            ],
            "scale": [
                1.0,
                1.0,
                1.0
            ],
            "children": [
                2,
                28
            ]
        },
        {
            "name": "Jnt_C_Hip",
            "translation": [
                2.58712449453433e-17,
                0.234669983386993,
                -0.0448916144669056
            ],
            "rotation": [
                0.70710676908493,
                4.32978030171328e-17,
                -0.70710676908493,
                4.32978030171328e-17
            ],
            "scale": [
                1.0,
                1.0,
                1.0
            ],
            "children": [
                3,
                17,
                20,
                24
            ]
        },
        {
            "name": "Jnt_C_Spine1",
            "translation": [
                -0.0154718002304435,
                -1.06581407981735e-16,
                2.24358149689003e-17
            ],
            "rotation": [
                6.12323426292584e-17,
                1.0,
                6.12323426292584e-17,
                8.10684852581289e-13
            ],
            "scale": [
                1.0,
                1.0,
                1.0
            ],
            "children": [
                4
            ]
        },
        {
            "name": "Jnt_C_Spine2",
            "translation": [
                0.0951756089925766,
                1.54436454401739e-13,
                4.31046216025159e-18
            ],
            "rotation": [
                -7.84181315857908e-17,
                -3.1052707605804e-13,
                -0.109641879796982,
                0.993971168994904
            ],
            "scale": [
                1.0,
                1.0,
                1.0
            ],
            "children": [
                5,
                9,
                13
            ]
        },
        {
            "name": "Jnt_C_Neck",
            "translation": [
                0.0693328678607941,
                3.55271359939116e-17,
                4.27845591257931e-14
            ],
            "rotation": [
                -4.30474857446945e-28,
                -8.97983239416672e-13,
                -0.252567499876022,
                0.967579245567322
            ],
            "scale": [
                1.0,
                1.0,
                1.0
            ],
            "children": [
                6
            ]
        },
        {
            "name": "Jnt_C_Head",
            "translation": [
                0.0496685020625591,
                8.88178366760566e-17,
                -4.85997255893905e-13
            ],
            "rotation": [
                -8.05708174874201e-14,
                -2.10831352376317e-13,
                0.357132017612457,
                0.934053897857666
            ],
            "scale": [
                1.0,
                1.0,
                1.0
            ],
            "children": [
                7,
                8
            ]
        },
        {
            "name": "Jnt_L_Ear",
            "translation": [
                0.0124001502990723,
                -0.0289310999214649,
                0.0320529453456402
            ],
            "rotation": [
                -0.15927654504776,
                -0.291695535182953,
                -0.452004164457321,
                0.827790379524231
            ],
            "scale": [
                1.0,
                1.0,
                1.0
            ]
        },
        {
            "name": "Jnt_R_Ear",
            "translation": [
                0.012400365434587,
                -0.0289311930537224,
                -0.0320529006421566
            ],
            "rotation": [
                0.291695535182953,
                -0.15927654504776,
                0.827790379524231,
                0.452004164457321
            ],
            "scale": [
                1.0,
                1.0,
                1.0
            ]
        },
        {
            "name": "Jnt_R_Shoulder",
            "translation": [
                0.00816516298800707,
                -0.00639301212504506,
                -0.0335490964353085
            ],
            "rotation": [
                4.50948992200185e-17,
                4.52669197002051e-17,
                0.460734575986862,
                0.887537956237793
            ],
            "scale": [
                1.0,
                1.0,
                1.0
            ],
            "children": [
                10
            ]
        },
        {
            "name": "Jnt_R_ForeLeg1",
            "translation": [
                0.0599999986588955,
                4.73638124276476e-07,
                8.88178366760566e-17
            ],
            "rotation": [
                2.50782394786349e-29,
                -4.3818135176732e-29,
                0.496725708246231,
                0.867907583713531
            ],
            "scale": [
                1.0,
                1.0,
                1.0
            ],
            "children": [
                11
            ]
        },
        {
            "name": "Jnt_R_ForeLeg2",
            "translation": [
                0.0896354541182518,
                -3.36305333803466e-07,
                7.5495166468604e-17
            ],
            "rotation": [
                2.66686119404725e-28,
                1.23967703507047e-13,
                -0.217123448848724,
                0.976144134998322
            ],
            "scale": [
                1.0,
                1.0,
                1.0
            ],
            "children": [
                12
            ]
        },
        {
            "name": "Jnt_R_ForeLeg3",
            "translation": [
                0.102370329201221,
                3.55271359939116e-17,
                -2.47712955833354e-14
            ],
            "rotation": [
                4.79984520625899e-17,
                -3.80203609305424e-17,
                -0.620919644832611,
                0.783874213695526
            ],
            "scale": [
                1.0,
                1.0,
                1.0
            ]
        },
        {
            "name": "Jnt_L_Shoulder",
            "translation": [
                0.00816518068313599,
                -0.00639319838955998,
                0.0335491262376308
            ],
            "rotation": [
                4.50948992200185e-17,
                4.52669197002051e-17,
                0.460734575986862,
                0.887537956237793
            ],
            "scale": [
                1.0,
                1.0,
                1.0
            ],
            "children": [
                14
            ]
        },
        {
            "name": "Jnt_L_ForeLeg1",
            "translation": [
                0.0599999986588955,
                3.55271359939116e-17,
                4.44089199923895e-18
            ],
            "rotation": [
                1.6353322732391e-28,
                1.21149792594391e-28,
                0.491010546684265,
                0.871153652667999
            ],
            "scale": [
                1.0,
                1.0,
                1.0
            ],
            "children": [
                15
            ]
        },
        {
            "name": "Jnt_L_ForeLeg2",
            "translation": [
                0.0939999967813492,
                0.0,
                4.44089199923895e-18
            ],
            "rotation": [
                3.05283946235557e-28,
                1.29912004548025e-13,
                -0.214332014322281,
                0.976760864257813
            ],
            "scale": [
                1.0,
                1.0,
                1.0
            ],
            "children": [
                16
            ]
        },
        {
            "name": "Jnt_L_ForeLeg3",
            "translation": [
                0.0979045256972313,
                3.55271359939116e-17,
                -2.48423497891488e-14
            ],
            "rotation": [
                -9.62786550767052e-17,
                7.56836710040375e-17,
                -0.618004083633423,
                0.786174893379211
            ],
            "scale": [
                1.0,
                1.0,
                1.0
            ]
        },
        {
            "name": "Jnt_C_Tail1",
            "translation": [
                0.127511814236641,
                0.0148586379364133,
                5.60042104333435e-17
            ],
            "rotation": [
                -0.0,
                -0.0,
                0.0,
                1.0
            ],
            "scale": [
                1.0,
                1.0,
                1.0
            ],
            "children": [
                18
            ]
        },
        {
            "name": "Jnt_C_Tail2",
            "translation": [
                0.0795588120818138,
                0.0,
                -3.94430443794298e-33
            ],
            "rotation": [
                1.23259516440783e-32,
                2.46519032881566e-32,
                -0.0,
                1.0
            ],
            "scale": [
                1.0,
                1.0,
                1.0
            ],
            "children": [
                19
            ]
        },
        {
            "name": "Jnt_C_Tail3",
            "translation": [
                0.0793130025267601,
                0.0,
                -1.57772177517719e-32
            ],
            "rotation": [
                1.23259516440783e-32,
                2.46519032881566e-32,
                -0.0,
                1.0
            ],
            "scale": [
                1.0,
                1.0,
                1.0
            ]
        },
        {
            "name": "Jnt_L_HindLeg1",
            "translation": [
                0.0953719615936279,
                0.0311324037611485,
                -0.0361275784671307
            ],
            "rotation": [
                0.461609989404678,
                0.887082993984222,
                -4.3607206947408e-16,
                -2.56687326025446e-16
            ],
            "scale": [
                1.0,
                1.0,
                1.0
            ],
            "children": [
                21
            ]
        },
        {
            "name": "Jnt_L_HindLeg2",
            "translation": [
                0.0840831771492958,
                8.88178366760566e-17,
                9.85878058572633e-16
            ],
            "rotation": [
                -3.33988684245886e-32,
                1.05065896665479e-31,
                0.697161734104156,
                0.716913878917694
            ],
            "scale": [
                1.0,
                1.0,
                1.0
            ],
            "children": [
                22
            ]
        },
        {
            "name": "Jnt_L_HindLeg3",
            "translation": [
                0.0970958322286606,
                7.10542719878232e-17,
                1.11022302462516e-16
            ],
            "rotation": [
                -9.54002180416903e-32,
                1.98786580133658e-31,
                -0.612879574298859,
                0.790176331996918
            ],
            "scale": [
                1.0,
                1.0,
                1.0
            ],
            "children": [
                23
            ]
        },
        {
            "name": "Jnt_L_HindLeg4",
            "translation": [
                0.068000003695488,
                -7.10542719878232e-17,
                9.32587298333484e-16
            ],
            "rotation": [
                5.08279027571664e-17,
                -3.41456252569399e-17,
                -0.557640373706818,
                0.830082654953003
            ],
            "scale": [
                1.0,
                1.0,
                1.0
            ]
        },
        {
            "name": "Jnt_R_HindLeg1",
            "translation": [
                0.095371700823307,
                0.0311322994530201,
                0.0361276008188725
            ],
            "rotation": [
                0.46161025762558,
                0.887082815170288,
                5.88880506857681e-13,
                3.07209065044528e-13
            ],
            "scale": [
                1.0,
                1.0,
                1.0
            ],
            "children": [
                25
            ]
        },
        {
            "name": "Jnt_R_HindLeg2",
            "translation": [
                0.0840831771492958,
                8.88178399847791e-18,
                7.73336947322394e-14
            ],
            "rotation": [
                -3.51976817734513e-29,
                3.61948921874686e-29,
                0.697161912918091,
                0.71691370010376
            ],
            "scale": [
                1.0,
                1.0,
                1.0
            ],
            "children": [
                26
            ]
        },
        {
            "name": "Jnt_R_HindLeg3",
            "translation": [
                0.0970960780978203,
                -1.30921757809932e-11,
                -1.26725290417601e-13
            ],
            "rotation": [
                1.54713172346752e-29,
                1.99468067811372e-29,
                -0.612882018089294,
                0.790174424648285
            ],
            "scale": [
                1.0,
                1.0,
                1.0
            ],
            "children": [
                27
            ]
        },
        {
            "name": "Jnt_R_HindLeg4",
            "translation": [
                0.068000003695488,
                -1.06581407981735e-16,
                0.0
            ],
            "rotation": [
                -5.27769088876084e-07,
                -7.85621750765131e-07,
                -0.557638227939606,
                0.830084085464478
            ],
            "scale": [
                1.0,
                1.0,
                1.0
            ]
        },
        {
            "name": "Geo_Body",
            "translation": [
                0.0,
                0.0,
                0.0
            ],
            "rotation": [
                0.0,
                0.0,
                0.0,
                1.0
            ],
            "scale": [
                1.0,
                1.0,
                1.0
            ],
            "mesh": 0,
            "skin": 0
        }
    ]
}