{
    "asset": {
        "generator": "FBX2glTF v0.9.7",
        "version": "2.0"
    },
    "scene": 0,
    "buffers": [
        {
            "byteLength": 69808,
            "uri": "buffer.bin"
        }
    ],
    "bufferViews": [
        {
            "buffer": 0,
            "byteLength": 1536,
            "byteOffset": 0,
            "target": 34963
        },
        {
            "buffer": 0,
            "byteLength": 8688,
            "byteOffset": 1536,
            "target": 34962
        },
        {
            "buffer": 0,
            "byteLength": 8688,
            "byteOffset": 10224,
            "target": 34962
        },
        {
            "buffer": 0,
            "byteLength": 5792,
            "byteOffset": 18912,
            "target": 34962
        },
        {
            "buffer": 0,
            "byteLength": 5792,
            "byteOffset": 24704,
            "target": 34962
        },
        {
            "buffer": 0,
            "byteLength": 11584,
            "byteOffset": 30496,
            "target": 34962
        },
        {
            "buffer": 0,
            "byteLength": 8688,
            "byteOffset": 42080,
            "target": 34962
        },
        {
            "buffer": 0,
            "byteLength": 8688,
            "byteOffset": 50768,
            "target": 34962
        },
        {
            "buffer": 0,
            "byteLength": 8688,
            "byteOffset": 59456,
            "target": 34962
        },
        {
            "buffer": 0,
            "byteLength": 1664,
            "byteOffset": 68144
        }
    ],
    "scenes": [
        {
            "name": "Root Scene",
            "nodes": [
                0
            ]
        }
    ],
    "accessors": [
        {
            "componentType": 5123,
            "type": "SCALAR",
            "count": 768,
            "bufferView": 0,
            "byteOffset": 0
        },
        {
            "componentType": 5126,
            "type": "VEC3",
            "count": 724,
            "bufferView": 1,
            "byteOffset": 0,
            "min": [
                -0.0759899988770485,
                -1.76234298265854e-08,
                -0.392931967973709
            ],
            "max": [
                0.0759898126125336,
                0.344499617815018,
                0.246810510754585
            ]
        },
        {
            "componentType": 5126,
            "type": "VEC3",
            "count": 724,
            "bufferView": 2,
            "byteOffset": 0
        },
        {
            "componentType": 5126,
            "type": "VEC2",
            "count": 724,
            "bufferView": 3,
            "byteOffset": 0
        },
        {
            "componentType": 5123,
            "type": "VEC4",
            "count": 724,
            "bufferView": 4,
            "byteOffset": 0
        },
        {
            "componentType": 5126,
            "type": "VEC4",
            "count": 724,
            "bufferView": 5,
            "byteOffset": 0
        },
        {
            "componentType": 5126,
            "type": "VEC3",
            "count": 724,
            "bufferView": 6,
            "byteOffset": 0,
            "min": [
                -0.0139549588784575,
                -0.021334195509553,
                -0.00679941149428487
            ],
            "max": [
                0.0139575861394405,
                0.00537576666101813,
                0.00886619556695223
            ],
            "name": "BS_Body.Fat"
        },
        {
            "componentType": 5126,
            "type": "VEC3",
            "count": 724,
            "bufferView": 7,
            "byteOffset": 0,
            "min": [
                0.0,
                0.0,
                0.0
            ],
            "max": [
                0.0,
                0.0,
                0.184681430459023
            ],
            "name": "BS_Body.ShortTail"
        },
        {
            "componentType": 5126,
            "type": "VEC3",
            "count": 724,
            "bufferView": 8,
            "byteOffset": 0,
            "min": [
                -0.027433417737484,
                -0.0244416985660791,
                -0.0230852495878935
            ],
            "max": [
                0.027433417737484,
                0.0183577910065651,
                0.0084062572568655
            ],
            "name": "BS_Body.PuffUp"
        },
        {
            "componentType": 5126,
            "type": "MAT4",
            "count": 26,
            "bufferView": 9,
            "byteOffset": 0
        }
    ],
    "samplers": [
        {}
    ],
    "materials": [
        {
            "name": "Mat_Body",
            "alphaMode": "OPAQUE",
            "extras": {
                "fromFBX": {
                    "shadingModel": "Metallic/Roughness",
                    "isTruePBR": true
                }
            },
            "pbrMetallicRoughness": {
                "baseColorFactor": [
                    1.0,
                    1.0,
                    1.0,
                    1.0
                ],
                "metallicFactor": 0.0,
                "roughnessFactor": 0.0
            }
        }
    ],
    "meshes": [
        {
            "name": "Geo_Body",
            "primitives": [
                {
                    "material": 0,
                    "mode": 4,
                    "attributes": {
                        "JOINTS_0": 4,
                        "NORMAL": 2,
                        "POSITION": 1,
                        "TEXCOORD_0": 3,
                        "WEIGHTS_0": 5
                    },
                    "indices": 0,
                    "targets": [
                        {
                            "POSITION": 6
                        },
                        {
                            "POSITION": 7
                        },
                        {
                            "POSITION": 8
                        }
                    ]
                }
            ],
            "weights": [
                0.0,
                0.0,
                0.0
            ]
        }
    ],
    "skins": [
        {
            "joints": [
                2,
                3,
                4,
                5,
                6,
                7,
                8,
                9,
                10,
                11,
                12,
                13,
                14,
                15,
                16,
                17,
                18,
                19,
                20,
                21,
                22,
                23,
                24,
                25,
                26,
                27
            ],
            "inverseBindMatrices": 9,
            "skeleton": 2
        }
    ],
    "nodes": [
        {
            "name": "RootNode",
            "translation": [
                0.0,
                0.0,
                0.0
            ],
            "rotation": [
                0.0,
                0.0,
                0.0,
                1.0
            ],
            "scale": [
                1.0,
                1.0,
                1.0
            ],
            "children": [
                1
            ]
        },
        {
            "name": "Export",
            "translation": [
                0.0,
                0.0,
                0.0
            ],
            "rotation": [
                0.0,
                0.0,
                0.0,
                1.0
            ],
            "scale": [
                1.0,
                1.0,
                1.0
            ],
            "children": [
                2,
                28
            ]
        },
        {
            "name": "Jnt_C_Hip",
            "translation": [
                -0.00279748975299299,
                0.234669983386993,
                -0.0448916144669056
            ],
            "rotation": [
                0.727518618106842,
                0.0111343720927835,
                -0.685917317867279,
                -0.0104976808652282
            ],
            "scale": [
                1.0,
                1.0,
                1.0
            ],
            "children": [
                3,
                17,
                20,
                24
            ]
        },
        {
            "name": "Jnt_C_Spine1",
            "translation": [
                -0.0154377836734056,
                -0.000472648534923792,
                -0.000909966882318258
            ],
            "rotation": [
                0.0124271959066391,
                0.999489903450012,
                0.00126583687961102,
                0.0293927602469921
            ],
            "scale": [
                1.0,
                1.0,
                1.0
            ],
            "children": [
                4
            ]
        },
        {
            "name": "Jnt_C_Spine2",
            "translation": [
                0.0951756089925766,
                1.54578566201498e-13,
                1.9428902600068e-17
            ],
            "rotation": [
                -0.000700744392815977,
                -0.0124894035980105,
                0.000575722137000412,
                0.99992161989212
            ],
            "scale": [
                1.0,
                1.0,
                1.0
            ],
            "children": [
                5,
                9,
                13
            ]
        },
        {
            "name": "Jnt_C_Neck",
            "translation": [
                0.0693328678607941,
                0.0,
                4.27846641578786e-14
            ],
            "rotation": [
                -1.72072679806824e-20,
                -8.9798605834232e-13,
                -0.252567499876022,
                0.967579245567322
            ],
            "scale": [
                1.0,
                1.0,
                1.0
            ],
            "children": [
                6
            ]
        },
        {
            "name": "Jnt_C_Head",
            "translation": [
                0.0496685020625591,
                -2.48689958574826e-16,
                -4.86015687330837e-13
            ],
            "rotation": [
                -0.00281548360362649,
                0.0121880806982517,
                0.225058183073997,
                0.974265038967133
            ],
            "scale": [
                1.0,
                1.0,
                1.0
            ],
            "children": [
                7,
                8
            ]
        },
        {
            "name": "Jnt_L_Ear",
            "translation": [
                0.0124001502990723,
                -0.0289310999214649,
                0.0320529453456402
            ],
            "rotation": [
                -0.15927654504776,
                -0.291695535182953,
                -0.452004164457321,
                0.827790379524231
            ],
            "scale": [
                1.0,
                1.0,
                1.0
            ]
        },
        {
            "name": "Jnt_R_Ear",
            "translation": [
                0.012400365434587,
                -0.0289311930537224,
                -0.0320529006421566
            ],
            "rotation": [
                0.291695535182953,
                -0.15927654504776,
                0.827790379524231,
                0.452004164457321
            ],
            "scale": [
                1.0,
                1.0,
                1.0
            ]
        },
        {
            "name": "Jnt_R_Shoulder",
            "translation": [
                0.00816516298800707,
                -0.00639301212504506,
                -0.0335490964353085
            ],
            "rotation": [
                3.64380041233979e-17,
                4.96684569274406e-17,
                0.364679604768753,
                0.931133091449738
            ],
            "scale": [
                1.0,
                1.0,
                1.0
            ],
            "children": [
                10
            ]
        },
        {
            "name": "Jnt_R_ForeLeg1",
            "translation": [
                0.0599999986588955,
                4.73638124276476e-07,
                8.88178366760566e-17
            ],
            "rotation": [
                0.0280286855995655,
                -0.0638880506157875,
                0.420685529708862,
                0.904519975185394
            ],
            "scale": [
                1.0,
                1.0,
                1.0
            ],
            "children": [
                11
            ]
        },
        {
            "name": "Jnt_R_ForeLeg2",
            "translation": [
                0.0896354541182518,
                -3.36305333803466e-07,
                8.10462762977739e-17
            ],
            "rotation": [
                -1.03698389732434e-14,
                1.23515442123322e-13,
                -0.298023849725723,
                0.954558432102203
            ],
            "scale": [
                1.0,
                1.0,
                1.0
            ],
            "children": [
                12
            ]
        },
        {
            "name": "Jnt_R_ForeLeg3",
            "translation": [
                0.102370329201221,
                1.77635679969558e-17,
                -2.47712955833354e-14
            ],
            "rotation": [
                -0.0563652440905571,
                0.0412800163030624,
                -0.508753776550293,
                0.858072578907013
            ],
            "scale": [
                1.0,
                1.0,
                1.0
            ]
        },
        {
            "name": "Jnt_L_Shoulder",
            "translation": [
                0.00816518068313599,
                -0.00639319838955998,
                0.0335491262376308
            ],
            "rotation": [
                4.04993881391393e-17,
                4.60257751941612e-17,
                0.399384379386902,
                0.916783571243286
            ],
            "scale": [
                1.0,
                1.0,
                1.0
            ],
            "children": [
                14
            ]
        },
        {
            "name": "Jnt_L_ForeLeg1",
            "translation": [
                0.0599999986588955,
                0.0,
                4.44089199923895e-18
            ],
            "rotation": [
                0.097975417971611,
                0.0741740688681602,
                0.710860311985016,
                0.692514717578888
            ],
            "scale": [
                1.0,
                1.0,
                1.0
            ],
            "children": [
                15
            ]
        },
        {
            "name": "Jnt_L_ForeLeg2",
            "translation": [
                0.0939999967813492,
                1.77635679969558e-17,
                6.66133799885843e-18
            ],
            "rotation": [
                -4.88150000293747e-14,
                1.20400786779787e-13,
                -0.565626978874207,
                0.824661195278168
            ],
            "scale": [
                1.0,
                1.0,
                1.0
            ],
            "children": [
                16
            ]
        },
        {
            "name": "Jnt_L_ForeLeg3",
            "translation": [
                0.0979045256972313,
                1.77635679969558e-17,
                -2.48379096424393e-14
            ],
            "rotation": [
                -0.0615102052688599,
                -0.0961524248123169,
                0.124669894576073,
                0.985610783100128
            ],
            "scale": [
                1.0,
                1.0,
                1.0
            ]
        },
        {
            "name": "Jnt_C_Tail1",
            "translation": [
                0.127511814236641,
                0.0148586379364133,
                6.43929335753745e-17
            ],
            "rotation": [
                -0.109775878489017,
                -0.0424006916582584,
                0.297871500253677,
                0.947324633598328
            ],
            "scale": [
                1.0,
                1.0,
                1.0
            ],
            "children": [
                18
            ]
        },
        {
            "name": "Jnt_C_Tail2",
            "translation": [
                0.0795588120818138,
                -3.55271359939116e-17,
                0.0
            ],
            "rotation": [
                1.38851513696274e-17,
                2.84922051801161e-18,
                -0.304264724254608,
                0.952587485313416
            ],
            "scale": [
                1.0,
                1.0,
                1.0
            ],
            "children": [
                19
            ]
        },
        {
            "name": "Jnt_C_Tail3",
            "translation": [
                0.0793130025267601,
                3.55271359939116e-17,
                0.0
            ],
            "rotation": [
                9.63873366830273e-18,
                1.87740799573914e-17,
                -0.304264724254608,
                0.952587485313416
            ],
            "scale": [
                1.0,
                1.0,
                1.0
            ]
        },
        {
            "name": "Jnt_L_HindLeg1",
            "translation": [
                0.0905742272734642,
                0.0312397759407759,
                -0.0361367799341679
            ],
            "rotation": [
                0.338387995958328,
                0.940682172775269,
                0.019620144739747,
                -0.015020820312202
            ],
            "scale": [
                1.0,
                1.0,
                1.0
            ],
            "children": [
                21
            ]
        },
        {
            "name": "Jnt_L_HindLeg2",
            "translation": [
                0.0840831771492958,
                1.95399251275236e-16,
                -4.44089199923895e-18
            ],
            "rotation": [
                -0.000573484634514898,
                0.000184630116564222,
                0.651805341243744,
                0.758386075496674
            ],
            "scale": [
                1.0,
                1.0,
                1.0
            ],
            "children": [
                22
            ]
        },
        {
            "name": "Jnt_L_HindLeg3",
            "translation": [
                0.0970958322286606,
                1.24344979287413e-16,
                -3.33066887535212e-17
            ],
            "rotation": [
                -3.88623637924918e-18,
                -5.74851441440411e-18,
                -0.560065686702728,
                0.828448235988617
            ],
            "scale": [
                1.0,
                1.0,
                1.0
            ],
            "children": [
                23
            ]
        },
        {
            "name": "Jnt_L_HindLeg4",
            "translation": [
                0.068000003695488,
                -7.99360543319399e-17,
                9.32587298333484e-16
            ],
            "rotation": [
                0.00501277204602957,
                -0.0426791682839394,
                -0.458546727895737,
                0.887630701065063
            ],
            "scale": [
                1.0,
                1.0,
                1.0
            ]
        },
        {
            "name": "Jnt_R_HindLeg1",
            "translation": [
                0.095371700823307,
                0.0311322994530201,
                0.0361276008188725
            ],
            "rotation": [
                0.584957718849182,
                0.810930490493774,
                -0.0136508224532008,
                0.00545967929065228
            ],
            "scale": [
                1.0,
                1.0,
                1.0
            ],
            "children": [
                25
            ]
        },
        {
            "name": "Jnt_R_HindLeg2",
            "translation": [
                0.0840831771492958,
                -2.549912503369e-10,
                7.43557646010196e-12
            ],
            "rotation": [
                -0.000785136013291776,
                0.00287670898251235,
                0.736874341964722,
                0.676023185253143
            ],
            "scale": [
                1.0,
                1.0,
                1.0
            ],
            "children": [
                26
            ]
        },
        {
            "name": "Jnt_R_HindLeg3",
            "translation": [
                0.0970960780978203,
                -1.08185812738859e-11,
                -9.32587311568374e-17
            ],
            "rotation": [
                2.88362316648284e-18,
                -1.9413397513076e-18,
                -0.609120428562164,
                0.793077766895294
            ],
            "scale": [
                1.0,
                1.0,
                1.0
            ],
            "children": [
                27
            ]
        },
        {
            "name": "Jnt_R_HindLeg4",
            "translation": [
                0.068000003695488,
                -7.10542719878232e-17,
                0.0
            ],
            "rotation": [
                -0.0302940085530281,
                0.0143308034166694,
                0.0170283168554306,
                0.999293208122253
            ],
            "scale": [
                1.0,
                1.0,
                1.0
            ]
        },
        {
            "name": "Geo_Body",
            "translation": [
                0.0,
                0.0,
                0.0
            ],
            "rotation": [
                0.0,
                0.0,
                0.0,
                1.0
            ],
            "scale": [
                1.0,
                1.0,
                1.0
            ],
            "mesh": 0,
            "skin": 0
        }
    ]
}